<svg width="18" height="22" viewBox="0 0 18 22" fill="none" xmlns="http://www.w3.org/2000/svg">
<path d="M15.0331 11.6657C15.0641 14.9886 17.9678 16.0944 18 16.1085C17.9754 16.1865 17.536 17.6844 16.4702 19.2316C15.5488 20.5692 14.5925 21.902 13.0861 21.9296C11.6059 21.9567 11.13 21.0577 9.43767 21.0577C7.7459 21.0577 7.21708 21.902 5.81591 21.9567C4.36184 22.0113 3.25458 20.5102 2.32554 19.1774C0.427169 16.4513 -1.02358 11.474 0.92441 8.11419C1.89213 6.44571 3.62152 5.38916 5.49862 5.36207C6.92648 5.33502 8.27421 6.31625 9.14707 6.31625C10.0194 6.31625 11.6572 5.13623 13.3789 5.30953C14.0997 5.33933 16.1229 5.59873 17.4221 7.48764C17.3174 7.5521 15.0079 8.88754 15.0331 11.6657ZM12.2512 3.50594C13.0232 2.57776 13.5427 1.28565 13.401 0C12.2883 0.0444226 10.9427 0.736531 10.1446 1.6642C9.42926 2.4857 8.80283 3.80055 8.97185 5.06075C10.2121 5.15607 11.4792 4.43471 12.2512 3.50594Z" fill="white"/>
</svg>
