<svg width="18" height="18" viewBox="0 0 18 18" fill="none" xmlns="http://www.w3.org/2000/svg">
<path d="M6.21564 6.48087L11.5189 11.7842M3.3881 14.6821C1.90839 13.2024 1.9084 10.8033 3.3881 9.32361L9.32361 3.3881C10.8033 1.90839 13.2024 1.9084 14.6821 3.3881C16.1618 4.8678 16.1618 7.26687 14.6821 8.74657L8.74656 14.6821C7.26686 16.1618 4.8678 16.1618 3.3881 14.6821Z" stroke="#48484A" stroke-width="1.5"/>
<path d="M6.21564 6.48087L11.5189 11.7842M3.3881 14.6821C1.90839 13.2024 1.9084 10.8033 3.3881 9.32361L9.32361 3.3881C10.8033 1.90839 13.2024 1.9084 14.6821 3.3881C16.1618 4.8678 16.1618 7.26687 14.6821 8.74657L8.74656 14.6821C7.26686 16.1618 4.8678 16.1618 3.3881 14.6821Z" stroke="black" stroke-opacity="0.2" stroke-width="1.5"/>
<path d="M6.21564 6.48087L11.5189 11.7842M3.3881 14.6821C1.90839 13.2024 1.9084 10.8033 3.3881 9.32361L9.32361 3.3881C10.8033 1.90839 13.2024 1.9084 14.6821 3.3881C16.1618 4.8678 16.1618 7.26687 14.6821 8.74657L8.74656 14.6821C7.26686 16.1618 4.8678 16.1618 3.3881 14.6821Z" stroke="black" stroke-opacity="0.2" stroke-width="1.5"/>
<path d="M6.21564 6.48087L11.5189 11.7842M3.3881 14.6821C1.90839 13.2024 1.9084 10.8033 3.3881 9.32361L9.32361 3.3881C10.8033 1.90839 13.2024 1.9084 14.6821 3.3881C16.1618 4.8678 16.1618 7.26687 14.6821 8.74657L8.74656 14.6821C7.26686 16.1618 4.8678 16.1618 3.3881 14.6821Z" stroke="black" stroke-opacity="0.2" stroke-width="1.5"/>
<path d="M6.21564 6.48087L11.5189 11.7842M3.3881 14.6821C1.90839 13.2024 1.9084 10.8033 3.3881 9.32361L9.32361 3.3881C10.8033 1.90839 13.2024 1.9084 14.6821 3.3881C16.1618 4.8678 16.1618 7.26687 14.6821 8.74657L8.74656 14.6821C7.26686 16.1618 4.8678 16.1618 3.3881 14.6821Z" stroke="black" stroke-opacity="0.2" stroke-width="1.5"/>
<path d="M6.21564 6.48087L11.5189 11.7842M3.3881 14.6821C1.90839 13.2024 1.9084 10.8033 3.3881 9.32361L9.32361 3.3881C10.8033 1.90839 13.2024 1.9084 14.6821 3.3881C16.1618 4.8678 16.1618 7.26687 14.6821 8.74657L8.74656 14.6821C7.26686 16.1618 4.8678 16.1618 3.3881 14.6821Z" stroke="black" stroke-opacity="0.2" stroke-width="1.5"/>
</svg>
