<svg width="18" height="18" viewBox="0 0 18 18" fill="none" xmlns="http://www.w3.org/2000/svg">
<path d="M9 5.77098C7.5 2.25015 2.25 2.62515 2.25 7.12518C2.25 11.6252 9 15.3753 9 15.3753C9 15.3753 15.75 11.6252 15.75 7.12518C15.75 2.62515 10.5 2.25015 9 5.77098Z" stroke="#48484A" stroke-width="1.5" stroke-linecap="round" stroke-linejoin="round"/>
<path d="M9 5.77098C7.5 2.25015 2.25 2.62515 2.25 7.12518C2.25 11.6252 9 15.3753 9 15.3753C9 15.3753 15.75 11.6252 15.75 7.12518C15.75 2.62515 10.5 2.25015 9 5.77098Z" stroke="black" stroke-opacity="0.2" stroke-width="1.5" stroke-linecap="round" stroke-linejoin="round"/>
<path d="M9 5.77098C7.5 2.25015 2.25 2.62515 2.25 7.12518C2.25 11.6252 9 15.3753 9 15.3753C9 15.3753 15.75 11.6252 15.75 7.12518C15.75 2.62515 10.5 2.25015 9 5.77098Z" stroke="black" stroke-opacity="0.2" stroke-width="1.5" stroke-linecap="round" stroke-linejoin="round"/>
<path d="M9 5.77098C7.5 2.25015 2.25 2.62515 2.25 7.12518C2.25 11.6252 9 15.3753 9 15.3753C9 15.3753 15.75 11.6252 15.75 7.12518C15.75 2.62515 10.5 2.25015 9 5.77098Z" stroke="black" stroke-opacity="0.2" stroke-width="1.5" stroke-linecap="round" stroke-linejoin="round"/>
<path d="M9 5.77098C7.5 2.25015 2.25 2.62515 2.25 7.12518C2.25 11.6252 9 15.3753 9 15.3753C9 15.3753 15.75 11.6252 15.75 7.12518C15.75 2.62515 10.5 2.25015 9 5.77098Z" stroke="black" stroke-opacity="0.2" stroke-width="1.5" stroke-linecap="round" stroke-linejoin="round"/>
<path d="M9 5.77098C7.5 2.25015 2.25 2.62515 2.25 7.12518C2.25 11.6252 9 15.3753 9 15.3753C9 15.3753 15.75 11.6252 15.75 7.12518C15.75 2.62515 10.5 2.25015 9 5.77098Z" stroke="black" stroke-opacity="0.2" stroke-width="1.5" stroke-linecap="round" stroke-linejoin="round"/>
</svg>
