<svg width="14" height="14" viewBox="0 0 14 14" fill="none" xmlns="http://www.w3.org/2000/svg">
<path d="M12.8337 10.6296C12.8337 10.9046 12.7219 11.1684 12.523 11.3629C12.3241 11.5574 12.0543 11.6666 11.7731 11.6666H2.2276C1.94631 11.6666 1.67654 11.5574 1.47764 11.3629C1.27873 11.1684 1.16699 10.9046 1.16699 10.6296V4.92591C1.16699 4.65087 1.27873 4.38709 1.47764 4.19261C1.67654 3.99813 1.94631 3.88887 2.2276 3.88887H4.065C4.24231 3.88887 4.40789 3.80222 4.50624 3.65797L5.25199 2.56421C5.35034 2.41996 5.51592 2.33331 5.69323 2.33331H8.30742C8.48473 2.33331 8.65031 2.41996 8.74866 2.56421L9.49441 3.65797C9.59276 3.80222 9.75834 3.88887 9.93565 3.88887H11.7731C12.0543 3.88887 12.3241 3.99813 12.523 4.19261C12.7219 4.38709 12.8337 4.65087 12.8337 4.92591V10.6296Z" stroke="#7B7B7F" stroke-linecap="round" stroke-linejoin="round"/>
<path d="M7.00033 9.59257C8.17184 9.59257 9.12154 8.66398 9.12154 7.5185C9.12154 6.37302 8.17184 5.44442 7.00033 5.44442C5.82881 5.44442 4.87911 6.37302 4.87911 7.5185C4.87911 8.66398 5.82881 9.59257 7.00033 9.59257Z" stroke="#7B7B7F" stroke-linecap="round" stroke-linejoin="round"/>
</svg>
