<svg width="30" height="30" viewBox="0 0 30 30" fill="none" xmlns="http://www.w3.org/2000/svg">
<path d="M20 20L15 15M15 15L10 10M15 15L20 10M15 15L10 20" stroke="#48484A" stroke-width="1.5" stroke-linecap="round" stroke-linejoin="round"/>
<path d="M20 20L15 15M15 15L10 10M15 15L20 10M15 15L10 20" stroke="black" stroke-opacity="0.2" stroke-width="1.5" stroke-linecap="round" stroke-linejoin="round"/>
<path d="M20 20L15 15M15 15L10 10M15 15L20 10M15 15L10 20" stroke="black" stroke-opacity="0.2" stroke-width="1.5" stroke-linecap="round" stroke-linejoin="round"/>
<path d="M20 20L15 15M15 15L10 10M15 15L20 10M15 15L10 20" stroke="black" stroke-opacity="0.2" stroke-width="1.5" stroke-linecap="round" stroke-linejoin="round"/>
<path d="M20 20L15 15M15 15L10 10M15 15L20 10M15 15L10 20" stroke="black" stroke-opacity="0.2" stroke-width="1.5" stroke-linecap="round" stroke-linejoin="round"/>
<path d="M20 20L15 15M15 15L10 10M15 15L20 10M15 15L10 20" stroke="black" stroke-opacity="0.2" stroke-width="1.5" stroke-linecap="round" stroke-linejoin="round"/>
</svg>
