<svg width="24" height="24" viewBox="0 0 24 24" fill="none" xmlns="http://www.w3.org/2000/svg">
<path d="M7 5V12M7 12V19M7 12H17M17 5V12M17 12V19" stroke="#48484A" stroke-width="1.5" stroke-linecap="round" stroke-linejoin="round"/>
<path d="M7 5V12M7 12V19M7 12H17M17 5V12M17 12V19" stroke="black" stroke-opacity="0.2" stroke-width="1.5" stroke-linecap="round" stroke-linejoin="round"/>
<path d="M7 5V12M7 12V19M7 12H17M17 5V12M17 12V19" stroke="black" stroke-opacity="0.2" stroke-width="1.5" stroke-linecap="round" stroke-linejoin="round"/>
<path d="M7 5V12M7 12V19M7 12H17M17 5V12M17 12V19" stroke="black" stroke-opacity="0.2" stroke-width="1.5" stroke-linecap="round" stroke-linejoin="round"/>
<path d="M7 5V12M7 12V19M7 12H17M17 5V12M17 12V19" stroke="black" stroke-opacity="0.2" stroke-width="1.5" stroke-linecap="round" stroke-linejoin="round"/>
<path d="M7 5V12M7 12V19M7 12H17M17 5V12M17 12V19" stroke="black" stroke-opacity="0.2" stroke-width="1.5" stroke-linecap="round" stroke-linejoin="round"/>
</svg>
