<svg width="23" height="24" viewBox="0 0 23 24" fill="none" xmlns="http://www.w3.org/2000/svg">
<g clip-path="url(#clip0_2243_19297)">
<path d="M2.00978 20.3631C2.01558 18.2814 3.57196 16.7219 5.6327 16.7335C7.63497 16.7446 9.16323 18.3206 9.16412 20.376C9.16501 22.4118 7.60462 24.0079 5.6211 24.0003C3.54652 23.9918 2.00398 22.4381 2.00978 20.3631Z" fill="#018381"/>
<path d="M20.6606 7.13073C20.3995 3.35471 17.8112 0.594119 14.0472 0.20045C10.9585 -0.122698 7.85784 0.0250395 4.76651 0.0960071C4.00818 0.113414 3.27306 0.410229 2.7504 0.965918C2.45269 1.28237 2.23488 1.66979 2.11125 2.08578C1.95904 2.59907 2.00725 3.12083 2.00725 3.65108V12.847H2.01216C2.03894 14.502 3.22396 15.633 4.98744 15.6518C6.29967 15.6656 7.61191 15.6544 8.92414 15.6544C8.92414 15.6455 8.92414 15.6366 8.92414 15.6281C10.3149 15.6281 11.7097 15.6955 13.0956 15.6116C15.0224 15.4951 16.8207 14.9082 18.2771 13.5906C20.1834 11.8668 20.8351 9.66191 20.6601 7.13028L20.6606 7.13073ZM15.4665 7.97118C15.4665 9.6445 14.1101 11.0009 12.4368 11.0009H7.95871C7.68153 11.0009 7.45658 10.776 7.45658 10.4988V5.44357C7.45658 5.1664 7.68153 4.94144 7.95871 4.94144H12.4368C14.1101 4.94144 15.4665 6.29786 15.4665 7.97118Z" fill="#018381"/>
</g>
<defs>
<clipPath id="clip0_2243_19297">
<rect width="18.6877" height="24" fill="white" transform="translate(2)"/>
</clipPath>
</defs>
</svg>
