<svg width="20" height="17" viewBox="0 0 20 17" fill="none" xmlns="http://www.w3.org/2000/svg">
<g clip-path="url(#clip0_2996_16765)">
<path d="M10.0134 8.94677C7.17903 8.94677 4.34502 8.94677 1.51067 8.94677C1.17144 8.94677 0.832217 8.94742 0.492989 8.94677C0.206632 8.94613 -0.00452383 8.75213 7.36465e-05 8.49605C0.00434273 8.24159 0.206303 8.0573 0.488063 8.05697C2.1622 8.056 3.83667 8.05665 5.5108 8.05665C7.68278 8.05665 9.85509 8.056 12.0271 8.05633C14.1938 8.05633 16.3605 8.05697 18.5269 8.0573C18.877 8.0573 19.2274 8.05148 19.5774 8.06182C19.8181 8.06926 19.9886 8.24871 19.9994 8.47633C20.0103 8.70395 19.8677 8.8931 19.6477 8.9361C19.5893 8.94742 19.5278 8.94742 19.4681 8.94742C17.3178 8.94742 15.1678 8.94742 13.0175 8.94742C12.0162 8.94742 11.015 8.94742 10.0137 8.94742L10.0134 8.94677Z" fill="white"/>
<path d="M17.7316 12.0801C18.0206 12.0801 18.2873 12.0755 18.5533 12.0862C18.5851 12.0875 18.6386 12.1703 18.6396 12.2162C18.6468 12.6203 18.6449 13.0245 18.6452 13.4283C18.6452 13.8542 18.6478 14.2797 18.6449 14.7055C18.6353 16.0353 17.6554 16.996 16.3048 16.9989C15.4785 17.0005 14.652 16.9982 13.8257 16.9972C13.7722 16.9972 13.7184 16.9927 13.6523 16.9898V16.1078C13.7187 16.1078 13.7824 16.1078 13.8461 16.1078C14.4645 16.1058 15.0831 16.1113 15.7012 16.0987C15.9626 16.0935 16.2263 16.0674 16.4837 16.0224C17.1855 15.9005 17.554 15.5355 17.6577 14.8374C17.709 14.4924 17.7218 14.1403 17.7287 13.7911C17.7398 13.2314 17.7316 12.6711 17.7316 12.0801Z" fill="white"/>
<path d="M13.6429 0.897707C13.6429 0.615117 13.6423 0.35225 13.6432 0.0893838C13.6439 -0.0250747 13.7349 0.00305488 13.7989 0.00305488C14.5483 0.00176157 15.298 0.000144922 16.0474 0.00531819C16.2874 0.00693483 16.5314 0.0043482 16.7662 0.0441177C17.8296 0.224535 18.6088 1.09623 18.6351 2.15707C18.6568 3.03459 18.64 3.91307 18.645 4.79091C18.6456 4.90278 18.5983 4.92736 18.4982 4.92509C18.2903 4.92024 18.0821 4.91733 17.8746 4.92509C17.757 4.9293 17.7264 4.88565 17.7271 4.77539C17.7304 4.13455 17.7373 3.49307 17.7219 2.85255C17.715 2.5635 17.6801 2.27153 17.6207 1.9883C17.5018 1.41924 17.1268 1.082 16.5515 0.992442C16.1695 0.932949 15.7797 0.91064 15.3929 0.899647C14.8737 0.884773 14.3535 0.89706 13.8337 0.897383C13.7749 0.897383 13.7165 0.897383 13.6426 0.897383L13.6429 0.897707Z" fill="white"/>
<path d="M6.35911 16.1056V16.9918C6.29211 16.9951 6.23366 16.9999 6.17553 16.9999C5.33814 16.9999 4.50107 17.0006 3.66367 16.9983C2.36127 16.9944 1.37216 16.018 1.36855 14.7314C1.36625 13.907 1.36756 13.0825 1.36756 12.2583C1.36756 12.2059 1.37249 12.1532 1.37544 12.0898H2.26801C2.27097 12.1577 2.27655 12.2256 2.27688 12.2935C2.28016 12.924 2.27064 13.5548 2.29034 14.1847C2.29954 14.4786 2.34124 14.7761 2.40987 15.0622C2.52875 15.5572 2.85977 15.8831 3.36451 15.9788C3.77532 16.0568 4.19862 16.0865 4.61765 16.1027C5.13125 16.1227 5.64617 16.1062 6.16076 16.1056C6.22052 16.1056 6.27996 16.1056 6.35943 16.1056H6.35911Z" fill="white"/>
<path d="M1.36816 4.92691C1.36816 4.84188 1.36816 4.78303 1.36816 4.72451C1.36816 3.92233 1.36652 3.12015 1.3675 2.31765C1.36914 0.970013 2.34709 0.00390519 3.71254 0.00196521C4.53286 0.000671895 5.35318 0.00713848 6.17318 2.52363e-05C6.33409 -0.00126808 6.37908 0.046908 6.37054 0.200166C6.35773 0.424233 6.36726 0.649593 6.36726 0.89597C6.28483 0.89597 6.22112 0.895324 6.15774 0.89597C5.41427 0.904377 4.67079 0.90664 3.92764 0.92604C3.72765 0.931213 3.52602 0.975509 3.33062 1.02336C2.82753 1.14687 2.49717 1.46568 2.40226 1.96296C2.32509 2.36744 2.29849 2.78389 2.28273 3.19646C2.2627 3.71799 2.2732 4.24081 2.27813 4.76299C2.27944 4.88682 2.24595 4.935 2.11295 4.9295C1.87388 4.9198 1.63416 4.92691 1.36816 4.92691Z" fill="white"/>
</g>
<defs>
<clipPath id="clip0_2996_16765">
<rect width="20" height="17" fill="white"/>
</clipPath>
</defs>
</svg>
