<svg width="24" height="25" viewBox="0 0 24 25" fill="none" xmlns="http://www.w3.org/2000/svg">
<path d="M17 12.751C17 13.3033 17.4477 13.751 18 13.751C18.5523 13.751 19 13.3033 19 12.751C19 12.1987 18.5523 11.751 18 11.751C17.4477 11.751 17 12.1987 17 12.751Z" fill="white"/>
<path d="M11 12.751C11 13.3033 11.4477 13.751 12 13.751C12.5523 13.751 13 13.3033 13 12.751C13 12.1987 12.5523 11.751 12 11.751C11.4477 11.751 11 12.1987 11 12.751Z" fill="white"/>
<path d="M5 12.751C5 13.3033 5.44772 13.751 6 13.751C6.55228 13.751 7 13.3033 7 12.751C7 12.1987 6.55228 11.751 6 11.751C5.44772 11.751 5 12.1987 5 12.751Z" fill="white"/>
<path d="M17 12.751C17 13.3033 17.4477 13.751 18 13.751C18.5523 13.751 19 13.3033 19 12.751C19 12.1987 18.5523 11.751 18 11.751C17.4477 11.751 17 12.1987 17 12.751Z" stroke="white" stroke-width="1.5" stroke-linecap="round" stroke-linejoin="round"/>
<path d="M11 12.751C11 13.3033 11.4477 13.751 12 13.751C12.5523 13.751 13 13.3033 13 12.751C13 12.1987 12.5523 11.751 12 11.751C11.4477 11.751 11 12.1987 11 12.751Z" stroke="white" stroke-width="1.5" stroke-linecap="round" stroke-linejoin="round"/>
<path d="M5 12.751C5 13.3033 5.44772 13.751 6 13.751C6.55228 13.751 7 13.3033 7 12.751C7 12.1987 6.55228 11.751 6 11.751C5.44772 11.751 5 12.1987 5 12.751Z" stroke="white" stroke-width="1.5" stroke-linecap="round" stroke-linejoin="round"/>
</svg>
