<svg width="24" height="25" viewBox="0 0 24 25" fill="none" xmlns="http://www.w3.org/2000/svg">
<path d="M12 17.833C11.4477 17.833 11 18.2807 11 18.833C11 19.3853 11.4477 19.833 12 19.833C12.5523 19.833 13 19.3853 13 18.833C13 18.2807 12.5523 17.833 12 17.833Z" fill="#959598"/>
<path d="M12 11.833C11.4477 11.833 11 12.2807 11 12.833C11 13.3853 11.4477 13.833 12 13.833C12.5523 13.833 13 13.3853 13 12.833C13 12.2807 12.5523 11.833 12 11.833Z" fill="#959598"/>
<path d="M12 5.83301C11.4477 5.83301 11 6.28072 11 6.83301C11 7.38529 11.4477 7.83301 12 7.83301C12.5523 7.83301 13 7.38529 13 6.83301C13 6.28072 12.5523 5.83301 12 5.83301Z" fill="#959598"/>
<path d="M12 17.833C11.4477 17.833 11 18.2807 11 18.833C11 19.3853 11.4477 19.833 12 19.833C12.5523 19.833 13 19.3853 13 18.833C13 18.2807 12.5523 17.833 12 17.833Z" stroke="#959598" stroke-linecap="round" stroke-linejoin="round"/>
<path d="M12 11.833C11.4477 11.833 11 12.2807 11 12.833C11 13.3853 11.4477 13.833 12 13.833C12.5523 13.833 13 13.3853 13 12.833C13 12.2807 12.5523 11.833 12 11.833Z" stroke="#959598" stroke-linecap="round" stroke-linejoin="round"/>
<path d="M12 5.83301C11.4477 5.83301 11 6.28072 11 6.83301C11 7.38529 11.4477 7.83301 12 7.83301C12.5523 7.83301 13 7.38529 13 6.83301C13 6.28072 12.5523 5.83301 12 5.83301Z" stroke="#959598" stroke-linecap="round" stroke-linejoin="round"/>
</svg>
