<svg width="61" height="60" viewBox="0 0 61 60" fill="none" xmlns="http://www.w3.org/2000/svg">
<rect x="0.5" width="60" height="60" rx="8" fill="#F4F4F4"/>
<mask id="mask0_2878_31347" style="mask-type:alpha" maskUnits="userSpaceOnUse" x="18" y="26" width="25" height="25">
<path fill-rule="evenodd" clip-rule="evenodd" d="M32.6499 26.7296C33.4037 26.4976 33.9632 26.3986 34.3355 26.3579C34.5212 26.3376 34.6605 26.3318 34.7541 26.3311C34.7996 26.332 34.8417 26.3549 34.8672 26.3925L40.6666 34.924C43.6986 39.3844 42.5405 45.4584 38.0801 48.4904C33.6197 51.5223 27.5456 50.3642 24.5137 45.9038L18.7145 37.3717C18.6891 37.3344 18.6819 37.2868 18.6987 37.245C18.7338 37.1581 18.7907 37.0307 18.878 36.8653C19.0529 36.5341 19.3505 36.0504 19.8434 35.4349C20.8294 34.2039 22.5969 32.4443 25.7268 30.3167C28.8564 28.1894 31.1425 27.1934 32.6499 26.7296Z" fill="#242424"/>
</mask>
<g mask="url(#mask0_2878_31347)">
<g filter="url(#filter0_iiii_2878_31347)">
<path d="M40.6625 34.9232C43.6945 39.3836 42.5365 45.4574 38.0761 48.4894C33.6157 51.5213 27.542 50.3634 24.51 45.903L18.6699 37.3115C18.6899 37.3121 18.7139 37.3133 18.7419 37.3131C18.8356 37.3124 18.975 37.3066 19.161 37.2862C19.5333 37.2455 20.0924 37.1468 20.8462 36.9148C22.3536 36.451 24.6398 35.4548 27.7697 33.3273C30.8995 31.1998 32.6669 29.4405 33.6529 28.2094C34.1459 27.5939 34.4434 27.1103 34.6183 26.7791C34.7056 26.6136 34.7623 26.4862 34.7974 26.3993C34.8079 26.3733 34.8156 26.3505 34.8225 26.3318L40.6625 34.9232Z" fill="url(#paint0_radial_2878_31347)"/>
</g>
<path d="M18.695 37.2468C18.6845 37.2728 18.6768 37.2955 18.67 37.3143C18.6899 37.3148 18.7139 37.316 18.7419 37.3158C18.8357 37.3152 18.975 37.3093 19.161 37.289C19.5333 37.2483 20.0925 37.1495 20.8462 36.9176C22.3537 36.4537 24.6399 35.4576 27.7697 33.3301C30.8996 31.2025 32.667 29.4432 33.6529 28.2122C34.1459 27.5966 34.4435 27.113 34.6183 26.7818C34.7057 26.6164 34.7624 26.4889 34.7975 26.402C34.808 26.376 34.8157 26.3533 34.8225 26.3345C34.8026 26.334 34.7786 26.3328 34.7505 26.333C34.6568 26.3336 34.5175 26.3395 34.3314 26.3598C33.9591 26.4005 33.4 26.4993 32.6462 26.7312C31.1388 27.1951 28.8526 28.1912 25.7228 30.3187C22.5929 32.4462 20.8255 34.2056 19.8396 35.4366C19.3466 36.0521 19.049 36.5357 18.8742 36.867C18.7868 37.0324 18.7301 37.1599 18.695 37.2468Z" fill="url(#paint1_linear_2878_31347)"/>
</g>
<g opacity="0.4" filter="url(#filter1_f_2878_31347)">
<path d="M28.0957 46.7057C30.66 49.8409 35.5001 48.4768 37.2035 47.1991C33.4558 47.8807 31.6044 47.3392 30.5598 46.149C30.0715 45.5926 29.7898 45.1341 29.7898 45.1341L24.5415 37.7403C24.1394 37.1738 23.3306 37.0903 22.8212 37.5629C22.4009 37.9528 22.3305 38.5918 22.6525 39.0661C24.0072 41.0622 26.2892 44.4971 28.0957 46.7057Z" fill="url(#paint2_linear_2878_31347)"/>
</g>
<g opacity="0.5" filter="url(#filter2_f_2878_31347)">
<path d="M31.4049 31.543C31.8078 31.2587 32.3555 31.3311 32.6722 31.6954L32.7321 31.7722L38.9799 41.3641L39.0319 41.4465C39.2689 41.867 39.1536 42.4071 38.7507 42.6913C38.3478 42.9756 37.8 42.9033 37.4834 42.539L37.4234 42.4622L31.1757 32.8702L31.1237 32.7878C30.8867 32.3673 31.002 31.8272 31.4049 31.543Z" fill="white"/>
</g>
<g filter="url(#filter3_iiiiii_2878_31347)">
<path d="M15.2364 14.8871C19.6968 11.8551 25.7525 12.9864 28.7621 17.4139L34.5126 25.8736C34.5399 25.9138 34.5479 25.964 34.5344 26.0107L34.5342 26.0117C34.5342 26.0117 34.5335 26.0143 34.5327 26.0166C34.5313 26.0211 34.5291 26.0284 34.5257 26.0382C34.5188 26.0579 34.5075 26.088 34.4911 26.1282C34.4583 26.2089 34.4039 26.3305 34.319 26.4901C34.1492 26.8094 33.8571 27.2816 33.3701 27.8872C32.3958 29.0985 30.641 30.8432 27.5233 32.9625C24.4055 35.0818 22.1375 36.0716 20.6527 36.5318C19.9104 36.7619 19.3638 36.8598 19.0046 36.9002C18.8249 36.9204 18.6918 36.9262 18.6047 36.9271C18.5612 36.9275 18.5291 36.927 18.5083 36.9261C18.4979 36.9257 18.4904 36.925 18.4856 36.9247C18.4832 36.9245 18.4805 36.9243 18.4805 36.9243L18.4795 36.9241C18.4311 36.9195 18.3874 36.8935 18.3601 36.8534L12.6096 28.3937C9.59994 23.9662 10.776 17.9191 15.2364 14.8871Z" fill="url(#paint3_radial_2878_31347)"/>
</g>
<g style="mix-blend-mode:plus-lighter" opacity="0.1" filter="url(#filter4_f_2878_31347)">
<circle cx="21.4715" cy="18.8936" r="1.91215" transform="rotate(-10.3083 21.4715 18.8936)" fill="white"/>
</g>
<g filter="url(#filter5_f_2878_31347)">
<path d="M25.1016 16.1618C23.388 14.2328 20.81 14.1458 18.9989 14.6531C18.4995 14.793 18.6771 15.2779 19.1955 15.2617C22.6784 15.153 25.5685 16.7383 25.1016 16.1618Z" fill="url(#paint4_linear_2878_31347)"/>
</g>
<g filter="url(#filter6_f_2878_31347)">
<path d="M14.3782 26.8466C13.7272 25.8553 13.3951 24.9244 13.2571 24.1087C13.0165 22.6872 14.5072 22.5253 15.2541 23.7585L16.4985 25.8131L22.359 34.4647L21.7831 34.7454C20.8948 35.1784 19.8237 34.8982 19.2645 34.0835C17.8678 32.0486 15.8095 29.026 14.3782 26.8466Z" fill="url(#paint5_linear_2878_31347)"/>
</g>
<g filter="url(#filter7_f_2878_31347)">
<path d="M24.2188 21.5625C24.6293 21.2897 25.1743 21.3772 25.4807 21.7499L25.539 21.8286L29.6266 27.9769L29.6762 28.0606C29.9014 28.4875 29.771 29.0241 29.3605 29.2971C28.9499 29.5698 28.405 29.4823 28.0985 29.1096L28.0403 29.0309L23.9526 22.8827L23.9031 22.7989C23.6779 22.3721 23.8082 21.8354 24.2188 21.5625Z" fill="white"/>
</g>
<g filter="url(#filter8_iiii_2878_31347)">
<rect x="34.3477" y="17.9424" width="9.28756" height="9.28756" rx="4.64378" transform="rotate(-10.3083 34.3477 17.9424)" fill="url(#paint6_radial_2878_31347)"/>
</g>
<g filter="url(#filter9_f_2878_31347)">
<path d="M37.7366 18.9581C37.7366 18.9581 37.1751 19.5275 36.7826 20.3934C36.3901 21.2592 36.281 22.2604 36.281 22.2604C36.281 22.2604 35.9666 21.1025 36.4128 20.2269C36.8591 19.3513 37.7366 18.9581 37.7366 18.9581Z" fill="url(#paint7_linear_2878_31347)"/>
</g>
<g opacity="0.7" filter="url(#filter10_f_2878_31347)">
<rect x="37.5215" y="20.1406" width="2.18531" height="2.18531" rx="1.09265" transform="rotate(-10.3083 37.5215 20.1406)" fill="white"/>
</g>
<g filter="url(#filter11_iii_2878_31347)">
<rect x="44.4648" y="21.6553" width="6.0096" height="6.0096" rx="3.0048" transform="rotate(-10.3083 44.4648 21.6553)" fill="url(#paint8_radial_2878_31347)"/>
</g>
<g filter="url(#filter12_f_2878_31347)">
<path d="M46.6556 22.3105C46.6556 22.3105 46.2923 22.679 46.0383 23.2392C45.7844 23.7995 45.7138 24.4473 45.7138 24.4473C45.7138 24.4473 45.5103 23.6981 45.7991 23.1316C46.0878 22.565 46.6556 22.3105 46.6556 22.3105Z" fill="url(#paint9_linear_2878_31347)"/>
</g>
<g opacity="0.7" filter="url(#filter13_f_2878_31347)">
<rect x="46.3691" y="22.9717" width="1.63898" height="1.63898" rx="0.819491" transform="rotate(-10.3083 46.3691 22.9717)" fill="white"/>
</g>
<g filter="url(#filter14_iiii_2878_31347)">
<rect x="44.1191" y="28.9336" width="4.37062" height="4.37062" rx="2.18531" transform="rotate(-10.3083 44.1191 28.9336)" fill="url(#paint10_radial_2878_31347)"/>
</g>
<g filter="url(#filter15_f_2878_31347)">
<path d="M45.7167 29.4145C45.7167 29.4145 45.4524 29.6825 45.2677 30.0899C45.083 30.4974 45.0317 30.9685 45.0317 30.9685C45.0317 30.9685 44.8837 30.4237 45.0938 30.0116C45.3038 29.5996 45.7167 29.4145 45.7167 29.4145Z" fill="url(#paint11_linear_2878_31347)"/>
</g>
<g opacity="0.7" filter="url(#filter16_f_2878_31347)">
<rect x="45.5078" y="29.8936" width="1.19199" height="1.19199" rx="0.595993" transform="rotate(-10.3083 45.5078 29.8936)" fill="white"/>
</g>
<defs>
<filter id="filter0_iiii_2878_31347" x="17.6699" y="20.332" width="30.6836" height="30.8477" filterUnits="userSpaceOnUse" color-interpolation-filters="sRGB">
<feFlood flood-opacity="0" result="BackgroundImageFix"/>
<feBlend mode="normal" in="SourceGraphic" in2="BackgroundImageFix" result="shape"/>
<feColorMatrix in="SourceAlpha" type="matrix" values="0 0 0 0 0 0 0 0 0 0 0 0 0 0 0 0 0 0 127 0" result="hardAlpha"/>
<feOffset dx="6" dy="-6"/>
<feGaussianBlur stdDeviation="4"/>
<feComposite in2="hardAlpha" operator="arithmetic" k2="-1" k3="1"/>
<feColorMatrix type="matrix" values="0 0 0 0 0 0 0 0 0 0 0 0 0 0 0 0 0 0 0.94 0"/>
<feBlend mode="multiply" in2="shape" result="effect1_innerShadow_2878_31347"/>
<feColorMatrix in="SourceAlpha" type="matrix" values="0 0 0 0 0 0 0 0 0 0 0 0 0 0 0 0 0 0 127 0" result="hardAlpha"/>
<feOffset dy="-1"/>
<feGaussianBlur stdDeviation="2.5"/>
<feComposite in2="hardAlpha" operator="arithmetic" k2="-1" k3="1"/>
<feColorMatrix type="matrix" values="0 0 0 0 0 0 0 0 0 0 0 0 0 0 0 0 0 0 0.43 0"/>
<feBlend mode="multiply" in2="effect1_innerShadow_2878_31347" result="effect2_innerShadow_2878_31347"/>
<feColorMatrix in="SourceAlpha" type="matrix" values="0 0 0 0 0 0 0 0 0 0 0 0 0 0 0 0 0 0 127 0" result="hardAlpha"/>
<feOffset dx="-1" dy="1"/>
<feGaussianBlur stdDeviation="2"/>
<feComposite in2="hardAlpha" operator="arithmetic" k2="-1" k3="1"/>
<feColorMatrix type="matrix" values="0 0 0 0 1 0 0 0 0 1 0 0 0 0 1 0 0 0 0.3 0"/>
<feBlend mode="normal" in2="effect2_innerShadow_2878_31347" result="effect3_innerShadow_2878_31347"/>
<feColorMatrix in="SourceAlpha" type="matrix" values="0 0 0 0 0 0 0 0 0 0 0 0 0 0 0 0 0 0 127 0" result="hardAlpha"/>
<feOffset dx="1" dy="-2"/>
<feGaussianBlur stdDeviation="1"/>
<feComposite in2="hardAlpha" operator="arithmetic" k2="-1" k3="1"/>
<feColorMatrix type="matrix" values="0 0 0 0 0.772549 0 0 0 0 1 0 0 0 0 0.956863 0 0 0 0.3 0"/>
<feBlend mode="plus-lighter" in2="effect3_innerShadow_2878_31347" result="effect4_innerShadow_2878_31347"/>
</filter>
<filter id="filter1_f_2878_31347" x="18.4512" y="33.2559" width="22.752" height="19.3672" filterUnits="userSpaceOnUse" color-interpolation-filters="sRGB">
<feFlood flood-opacity="0" result="BackgroundImageFix"/>
<feBlend mode="normal" in="SourceGraphic" in2="BackgroundImageFix" result="shape"/>
<feGaussianBlur stdDeviation="2" result="effect1_foregroundBlur_2878_31347"/>
</filter>
<filter id="filter2_f_2878_31347" x="27.002" y="27.3691" width="16.1523" height="19.4961" filterUnits="userSpaceOnUse" color-interpolation-filters="sRGB">
<feFlood flood-opacity="0" result="BackgroundImageFix"/>
<feBlend mode="normal" in="SourceGraphic" in2="BackgroundImageFix" result="shape"/>
<feGaussianBlur stdDeviation="2" result="effect1_foregroundBlur_2878_31347"/>
</filter>
<filter id="filter3_iiiiii_2878_31347" x="6.94141" y="9.18652" width="33.1996" height="29.7402" filterUnits="userSpaceOnUse" color-interpolation-filters="sRGB">
<feFlood flood-opacity="0" result="BackgroundImageFix"/>
<feBlend mode="normal" in="SourceGraphic" in2="BackgroundImageFix" result="shape"/>
<feColorMatrix in="SourceAlpha" type="matrix" values="0 0 0 0 0 0 0 0 0 0 0 0 0 0 0 0 0 0 127 0" result="hardAlpha"/>
<feOffset dx="8" dy="-4"/>
<feGaussianBlur stdDeviation="2.8"/>
<feComposite in2="hardAlpha" operator="arithmetic" k2="-1" k3="1"/>
<feColorMatrix type="matrix" values="0 0 0 0 0 0 0 0 0 0 0 0 0 0 0 0 0 0 0.3 0"/>
<feBlend mode="normal" in2="shape" result="effect1_innerShadow_2878_31347"/>
<feColorMatrix in="SourceAlpha" type="matrix" values="0 0 0 0 0 0 0 0 0 0 0 0 0 0 0 0 0 0 127 0" result="hardAlpha"/>
<feOffset dx="-4" dy="2"/>
<feGaussianBlur stdDeviation="2.5"/>
<feComposite in2="hardAlpha" operator="arithmetic" k2="-1" k3="1"/>
<feColorMatrix type="matrix" values="0 0 0 0 0 0 0 0 0 0 0 0 0 0 0 0 0 0 0.2 0"/>
<feBlend mode="normal" in2="effect1_innerShadow_2878_31347" result="effect2_innerShadow_2878_31347"/>
<feColorMatrix in="SourceAlpha" type="matrix" values="0 0 0 0 0 0 0 0 0 0 0 0 0 0 0 0 0 0 127 0" result="hardAlpha"/>
<feOffset dy="-1"/>
<feGaussianBlur stdDeviation="1.5"/>
<feComposite in2="hardAlpha" operator="arithmetic" k2="-1" k3="1"/>
<feColorMatrix type="matrix" values="0 0 0 0 0 0 0 0 0 0 0 0 0 0 0 0 0 0 0.2 0"/>
<feBlend mode="multiply" in2="effect2_innerShadow_2878_31347" result="effect3_innerShadow_2878_31347"/>
<feColorMatrix in="SourceAlpha" type="matrix" values="0 0 0 0 0 0 0 0 0 0 0 0 0 0 0 0 0 0 127 0" result="hardAlpha"/>
<feOffset dx="1" dy="-1"/>
<feGaussianBlur stdDeviation="1"/>
<feComposite in2="hardAlpha" operator="arithmetic" k2="-1" k3="1"/>
<feColorMatrix type="matrix" values="0 0 0 0 0.772549 0 0 0 0 1 0 0 0 0 0.956863 0 0 0 0.3 0"/>
<feBlend mode="plus-lighter" in2="effect3_innerShadow_2878_31347" result="effect4_innerShadow_2878_31347"/>
<feColorMatrix in="SourceAlpha" type="matrix" values="0 0 0 0 0 0 0 0 0 0 0 0 0 0 0 0 0 0 127 0" result="hardAlpha"/>
<feOffset/>
<feGaussianBlur stdDeviation="2"/>
<feComposite in2="hardAlpha" operator="arithmetic" k2="-1" k3="1"/>
<feColorMatrix type="matrix" values="0 0 0 0 1 0 0 0 0 1 0 0 0 0 1 0 0 0 0.75 0"/>
<feBlend mode="normal" in2="effect4_innerShadow_2878_31347" result="effect5_innerShadow_2878_31347"/>
<feColorMatrix in="SourceAlpha" type="matrix" values="0 0 0 0 0 0 0 0 0 0 0 0 0 0 0 0 0 0 127 0" result="hardAlpha"/>
<feOffset/>
<feGaussianBlur stdDeviation="1"/>
<feComposite in2="hardAlpha" operator="arithmetic" k2="-1" k3="1"/>
<feColorMatrix type="matrix" values="0 0 0 0 0 0 0 0 0 0 0 0 0 0 0 0 0 0 0.45 0"/>
<feBlend mode="normal" in2="effect5_innerShadow_2878_31347" result="effect6_innerShadow_2878_31347"/>
</filter>
<filter id="filter4_f_2878_31347" x="15.5586" y="12.9814" width="11.8262" height="11.8242" filterUnits="userSpaceOnUse" color-interpolation-filters="sRGB">
<feFlood flood-opacity="0" result="BackgroundImageFix"/>
<feBlend mode="normal" in="SourceGraphic" in2="BackgroundImageFix" result="shape"/>
<feGaussianBlur stdDeviation="2" result="effect1_foregroundBlur_2878_31347"/>
</filter>
<filter id="filter5_f_2878_31347" x="17.7031" y="13.3896" width="8.44727" height="3.89844" filterUnits="userSpaceOnUse" color-interpolation-filters="sRGB">
<feFlood flood-opacity="0" result="BackgroundImageFix"/>
<feBlend mode="normal" in="SourceGraphic" in2="BackgroundImageFix" result="shape"/>
<feGaussianBlur stdDeviation="0.5" result="effect1_foregroundBlur_2878_31347"/>
</filter>
<filter id="filter6_f_2878_31347" x="10.2305" y="19.9287" width="15.1289" height="18.0195" filterUnits="userSpaceOnUse" color-interpolation-filters="sRGB">
<feFlood flood-opacity="0" result="BackgroundImageFix"/>
<feBlend mode="normal" in="SourceGraphic" in2="BackgroundImageFix" result="shape"/>
<feGaussianBlur stdDeviation="1.5" result="effect1_foregroundBlur_2878_31347"/>
</filter>
<filter id="filter7_f_2878_31347" x="19.793" y="17.4033" width="13.9922" height="16.0527" filterUnits="userSpaceOnUse" color-interpolation-filters="sRGB">
<feFlood flood-opacity="0" result="BackgroundImageFix"/>
<feBlend mode="normal" in="SourceGraphic" in2="BackgroundImageFix" result="shape"/>
<feGaussianBlur stdDeviation="2" result="effect1_foregroundBlur_2878_31347"/>
</filter>
<filter id="filter8_iiii_2878_31347" x="33.1035" y="14.0352" width="14.2891" height="15.29" filterUnits="userSpaceOnUse" color-interpolation-filters="sRGB">
<feFlood flood-opacity="0" result="BackgroundImageFix"/>
<feBlend mode="normal" in="SourceGraphic" in2="BackgroundImageFix" result="shape"/>
<feColorMatrix in="SourceAlpha" type="matrix" values="0 0 0 0 0 0 0 0 0 0 0 0 0 0 0 0 0 0 127 0" result="hardAlpha"/>
<feOffset dx="-2" dy="-3"/>
<feGaussianBlur stdDeviation="1.5"/>
<feComposite in2="hardAlpha" operator="arithmetic" k2="-1" k3="1"/>
<feColorMatrix type="matrix" values="0 0 0 0 0 0 0 0 0 0 0 0 0 0 0 0 0 0 0.6 0"/>
<feBlend mode="multiply" in2="shape" result="effect1_innerShadow_2878_31347"/>
<feColorMatrix in="SourceAlpha" type="matrix" values="0 0 0 0 0 0 0 0 0 0 0 0 0 0 0 0 0 0 127 0" result="hardAlpha"/>
<feOffset dy="-2"/>
<feGaussianBlur stdDeviation="1.5"/>
<feComposite in2="hardAlpha" operator="arithmetic" k2="-1" k3="1"/>
<feColorMatrix type="matrix" values="0 0 0 0 0 0 0 0 0 0 0 0 0 0 0 0 0 0 0.6 0"/>
<feBlend mode="multiply" in2="effect1_innerShadow_2878_31347" result="effect2_innerShadow_2878_31347"/>
<feColorMatrix in="SourceAlpha" type="matrix" values="0 0 0 0 0 0 0 0 0 0 0 0 0 0 0 0 0 0 127 0" result="hardAlpha"/>
<feOffset dx="3" dy="3"/>
<feGaussianBlur stdDeviation="2.5"/>
<feComposite in2="hardAlpha" operator="arithmetic" k2="-1" k3="1"/>
<feColorMatrix type="matrix" values="0 0 0 0 1 0 0 0 0 1 0 0 0 0 1 0 0 0 0.3 0"/>
<feBlend mode="plus-lighter" in2="effect2_innerShadow_2878_31347" result="effect3_innerShadow_2878_31347"/>
<feColorMatrix in="SourceAlpha" type="matrix" values="0 0 0 0 0 0 0 0 0 0 0 0 0 0 0 0 0 0 127 0" result="hardAlpha"/>
<feOffset dx="-1" dy="-1"/>
<feGaussianBlur stdDeviation="0.5"/>
<feComposite in2="hardAlpha" operator="arithmetic" k2="-1" k3="1"/>
<feColorMatrix type="matrix" values="0 0 0 0 0.772549 0 0 0 0 1 0 0 0 0 0.956863 0 0 0 0.3 0"/>
<feBlend mode="plus-lighter" in2="effect3_innerShadow_2878_31347" result="effect4_innerShadow_2878_31347"/>
</filter>
<filter id="filter9_f_2878_31347" x="35.1738" y="17.958" width="3.5625" height="5.30273" filterUnits="userSpaceOnUse" color-interpolation-filters="sRGB">
<feFlood flood-opacity="0" result="BackgroundImageFix"/>
<feBlend mode="normal" in="SourceGraphic" in2="BackgroundImageFix" result="shape"/>
<feGaussianBlur stdDeviation="0.5" result="effect1_foregroundBlur_2878_31347"/>
</filter>
<filter id="filter10_f_2878_31347" x="36.1992" y="18.4277" width="5.18555" height="5.18555" filterUnits="userSpaceOnUse" color-interpolation-filters="sRGB">
<feFlood flood-opacity="0" result="BackgroundImageFix"/>
<feBlend mode="normal" in="SourceGraphic" in2="BackgroundImageFix" result="shape"/>
<feGaussianBlur stdDeviation="0.75" result="effect1_foregroundBlur_2878_31347"/>
</filter>
<filter id="filter11_iii_2878_31347" x="42.9531" y="19.0684" width="8.01172" height="8.01074" filterUnits="userSpaceOnUse" color-interpolation-filters="sRGB">
<feFlood flood-opacity="0" result="BackgroundImageFix"/>
<feBlend mode="normal" in="SourceGraphic" in2="BackgroundImageFix" result="shape"/>
<feColorMatrix in="SourceAlpha" type="matrix" values="0 0 0 0 0 0 0 0 0 0 0 0 0 0 0 0 0 0 127 0" result="hardAlpha"/>
<feOffset dx="-2" dy="-2"/>
<feGaussianBlur stdDeviation="1"/>
<feComposite in2="hardAlpha" operator="arithmetic" k2="-1" k3="1"/>
<feColorMatrix type="matrix" values="0 0 0 0 0 0 0 0 0 0 0 0 0 0 0 0 0 0 0.4 0"/>
<feBlend mode="multiply" in2="shape" result="effect1_innerShadow_2878_31347"/>
<feColorMatrix in="SourceAlpha" type="matrix" values="0 0 0 0 0 0 0 0 0 0 0 0 0 0 0 0 0 0 127 0" result="hardAlpha"/>
<feOffset dy="-2"/>
<feGaussianBlur stdDeviation="1.5"/>
<feComposite in2="hardAlpha" operator="arithmetic" k2="-1" k3="1"/>
<feColorMatrix type="matrix" values="0 0 0 0 0 0 0 0 0 0 0 0 0 0 0 0 0 0 0.3 0"/>
<feBlend mode="multiply" in2="effect1_innerShadow_2878_31347" result="effect2_innerShadow_2878_31347"/>
<feColorMatrix in="SourceAlpha" type="matrix" values="0 0 0 0 0 0 0 0 0 0 0 0 0 0 0 0 0 0 127 0" result="hardAlpha"/>
<feOffset dx="-1" dy="-1"/>
<feGaussianBlur stdDeviation="0.5"/>
<feComposite in2="hardAlpha" operator="arithmetic" k2="-1" k3="1"/>
<feColorMatrix type="matrix" values="0 0 0 0 0.772549 0 0 0 0 1 0 0 0 0 0.956863 0 0 0 0.3 0"/>
<feBlend mode="plus-lighter" in2="effect2_innerShadow_2878_31347" result="effect3_innerShadow_2878_31347"/>
</filter>
<filter id="filter12_f_2878_31347" x="45.1445" y="21.8105" width="2.01172" height="3.13672" filterUnits="userSpaceOnUse" color-interpolation-filters="sRGB">
<feFlood flood-opacity="0" result="BackgroundImageFix"/>
<feBlend mode="normal" in="SourceGraphic" in2="BackgroundImageFix" result="shape"/>
<feGaussianBlur stdDeviation="0.25" result="effect1_foregroundBlur_2878_31347"/>
</filter>
<filter id="filter13_f_2878_31347" x="45.502" y="21.8115" width="3.64062" height="3.63965" filterUnits="userSpaceOnUse" color-interpolation-filters="sRGB">
<feFlood flood-opacity="0" result="BackgroundImageFix"/>
<feBlend mode="normal" in="SourceGraphic" in2="BackgroundImageFix" result="shape"/>
<feGaussianBlur stdDeviation="0.5" result="effect1_foregroundBlur_2878_31347"/>
</filter>
<filter id="filter14_iiii_2878_31347" x="43.4746" y="26.5068" width="8.37109" height="9.37109" filterUnits="userSpaceOnUse" color-interpolation-filters="sRGB">
<feFlood flood-opacity="0" result="BackgroundImageFix"/>
<feBlend mode="normal" in="SourceGraphic" in2="BackgroundImageFix" result="shape"/>
<feColorMatrix in="SourceAlpha" type="matrix" values="0 0 0 0 0 0 0 0 0 0 0 0 0 0 0 0 0 0 127 0" result="hardAlpha"/>
<feOffset dx="-1" dy="-1"/>
<feGaussianBlur stdDeviation="1"/>
<feComposite in2="hardAlpha" operator="arithmetic" k2="-1" k3="1"/>
<feColorMatrix type="matrix" values="0 0 0 0 0 0 0 0 0 0 0 0 0 0 0 0 0 0 0.5 0"/>
<feBlend mode="multiply" in2="shape" result="effect1_innerShadow_2878_31347"/>
<feColorMatrix in="SourceAlpha" type="matrix" values="0 0 0 0 0 0 0 0 0 0 0 0 0 0 0 0 0 0 127 0" result="hardAlpha"/>
<feOffset dy="-2"/>
<feGaussianBlur stdDeviation="1.5"/>
<feComposite in2="hardAlpha" operator="arithmetic" k2="-1" k3="1"/>
<feColorMatrix type="matrix" values="0 0 0 0 0 0 0 0 0 0 0 0 0 0 0 0 0 0 0.6 0"/>
<feBlend mode="multiply" in2="effect1_innerShadow_2878_31347" result="effect2_innerShadow_2878_31347"/>
<feColorMatrix in="SourceAlpha" type="matrix" values="0 0 0 0 0 0 0 0 0 0 0 0 0 0 0 0 0 0 127 0" result="hardAlpha"/>
<feOffset dx="3" dy="3"/>
<feGaussianBlur stdDeviation="2.5"/>
<feComposite in2="hardAlpha" operator="arithmetic" k2="-1" k3="1"/>
<feColorMatrix type="matrix" values="0 0 0 0 1 0 0 0 0 1 0 0 0 0 1 0 0 0 0.4 0"/>
<feBlend mode="normal" in2="effect2_innerShadow_2878_31347" result="effect3_innerShadow_2878_31347"/>
<feColorMatrix in="SourceAlpha" type="matrix" values="0 0 0 0 0 0 0 0 0 0 0 0 0 0 0 0 0 0 127 0" result="hardAlpha"/>
<feOffset dx="-0.5" dy="-0.5"/>
<feGaussianBlur stdDeviation="0.25"/>
<feComposite in2="hardAlpha" operator="arithmetic" k2="-1" k3="1"/>
<feColorMatrix type="matrix" values="0 0 0 0 0.772549 0 0 0 0 1 0 0 0 0 0.956863 0 0 0 0.3 0"/>
<feBlend mode="plus-lighter" in2="effect3_innerShadow_2878_31347" result="effect4_innerShadow_2878_31347"/>
</filter>
<filter id="filter15_f_2878_31347" x="44.6805" y="29.1141" width="1.33633" height="2.15469" filterUnits="userSpaceOnUse" color-interpolation-filters="sRGB">
<feFlood flood-opacity="0" result="BackgroundImageFix"/>
<feBlend mode="normal" in="SourceGraphic" in2="BackgroundImageFix" result="shape"/>
<feGaussianBlur stdDeviation="0.15" result="effect1_foregroundBlur_2878_31347"/>
</filter>
<filter id="filter16_f_2878_31347" x="44.6055" y="28.7773" width="3.19141" height="3.19238" filterUnits="userSpaceOnUse" color-interpolation-filters="sRGB">
<feFlood flood-opacity="0" result="BackgroundImageFix"/>
<feBlend mode="normal" in="SourceGraphic" in2="BackgroundImageFix" result="shape"/>
<feGaussianBlur stdDeviation="0.5" result="effect1_foregroundBlur_2878_31347"/>
</filter>
<radialGradient id="paint0_radial_2878_31347" cx="0" cy="0" r="1" gradientUnits="userSpaceOnUse" gradientTransform="translate(31.9036 35.044) rotate(91.2055) scale(15.0538 14.5885)">
<stop stop-color="#808080"/>
<stop offset="0.5" stop-color="#4D4D4D"/>
<stop offset="1" stop-color="#1A1A1A"/>
</radialGradient>
<linearGradient id="paint1_linear_2878_31347" x1="25.7228" y1="30.3187" x2="27.7697" y2="33.3301" gradientUnits="userSpaceOnUse">
<stop stop-color="#808080"/>
<stop offset="0.4375" stop-color="#4D4D4D"/>
<stop offset="1" stop-color="#1A1A1A"/>
</linearGradient>
<linearGradient id="paint2_linear_2878_31347" x1="30.3414" y1="41.7134" x2="27.051" y2="45.42" gradientUnits="userSpaceOnUse">
<stop stop-color="white" stop-opacity="0"/>
<stop offset="1" stop-color="white"/>
</linearGradient>
<radialGradient id="paint3_radial_2878_31347" cx="0" cy="0" r="1" gradientUnits="userSpaceOnUse" gradientTransform="translate(19.7613 21.7043) rotate(38.383) scale(12.0006 10.7239)">
<stop stop-color="white"/>
<stop offset="0.759615" stop-color="#E1E1E1"/>
<stop offset="1" stop-color="#CACACA"/>
</radialGradient>
<linearGradient id="paint4_linear_2878_31347" x1="25.4253" y1="16.2299" x2="18.2176" y2="14.7644" gradientUnits="userSpaceOnUse">
<stop stop-color="white" stop-opacity="0"/>
<stop offset="0.5" stop-color="white"/>
<stop offset="1" stop-color="white" stop-opacity="0"/>
</linearGradient>
<linearGradient id="paint5_linear_2878_31347" x1="18.6856" y1="28.0066" x2="16.4623" y2="29.5216" gradientUnits="userSpaceOnUse">
<stop stop-color="white" stop-opacity="0"/>
<stop offset="1" stop-color="white"/>
</linearGradient>
<radialGradient id="paint6_radial_2878_31347" cx="0" cy="0" r="1" gradientUnits="userSpaceOnUse" gradientTransform="translate(38.3477 21.6206) rotate(74.4275) scale(5.82308)">
<stop stop-color="#01C6C3"/>
<stop offset="0.504808" stop-color="#018381"/>
</radialGradient>
<linearGradient id="paint7_linear_2878_31347" x1="37.4569" y1="18.9622" x2="36.2563" y2="22.1247" gradientUnits="userSpaceOnUse">
<stop stop-color="white" stop-opacity="0"/>
<stop offset="0.5" stop-color="white"/>
<stop offset="1" stop-color="white" stop-opacity="0"/>
</linearGradient>
<radialGradient id="paint8_radial_2878_31347" cx="0" cy="0" r="1" gradientUnits="userSpaceOnUse" gradientTransform="translate(47.0531 24.0353) rotate(74.4275) scale(3.76787)">
<stop stop-color="white"/>
<stop offset="0.548077" stop-color="#DADADA"/>
<stop offset="1" stop-color="#CDCDCD"/>
</radialGradient>
<linearGradient id="paint9_linear_2878_31347" x1="46.4746" y1="22.3132" x2="45.6978" y2="24.3595" gradientUnits="userSpaceOnUse">
<stop stop-color="white" stop-opacity="0"/>
<stop offset="0.5" stop-color="white"/>
<stop offset="1" stop-color="white" stop-opacity="0"/>
</linearGradient>
<radialGradient id="paint10_radial_2878_31347" cx="0" cy="0" r="1" gradientUnits="userSpaceOnUse" gradientTransform="translate(46.0015 30.6645) rotate(74.4275) scale(2.74027)">
<stop stop-color="white"/>
<stop offset="0.548077" stop-color="#DADADA"/>
<stop offset="1" stop-color="#CDCDCD"/>
</radialGradient>
<linearGradient id="paint11_linear_2878_31347" x1="45.5851" y1="29.4164" x2="45.0201" y2="30.9047" gradientUnits="userSpaceOnUse">
<stop stop-color="white" stop-opacity="0"/>
<stop offset="0.5" stop-color="white"/>
<stop offset="1" stop-color="white" stop-opacity="0.4"/>
</linearGradient>
</defs>
</svg>
