<svg width="16" height="16" viewBox="0 0 16 16" fill="none" xmlns="http://www.w3.org/2000/svg">
<g opacity="0.5">
<path d="M9.33317 6.66667V11.3333M6.6665 6.66667V11.3333M3.99984 4V11.8667C3.99984 12.6134 3.99984 12.9865 4.14516 13.2717C4.27299 13.5226 4.47682 13.727 4.7277 13.8548C5.01264 14 5.38583 14 6.13111 14H9.86856C10.6138 14 10.9865 14 11.2714 13.8548C11.5223 13.727 11.7268 13.5226 11.8547 13.2717C11.9998 12.9868 11.9998 12.614 11.9998 11.8687V4M3.99984 4H5.33317M3.99984 4H2.6665M5.33317 4H10.6665M5.33317 4C5.33317 3.37874 5.33317 3.06827 5.43466 2.82324C5.56999 2.49654 5.82938 2.23682 6.15609 2.10149C6.40112 2 6.71191 2 7.33317 2H8.6665C9.28776 2 9.59839 2 9.84341 2.10149C10.1701 2.23682 10.4296 2.49654 10.5649 2.82324C10.6664 3.06827 10.6665 3.37875 10.6665 4M10.6665 4H11.9998M11.9998 4H13.3332" stroke="#018381" stroke-linecap="round" stroke-linejoin="round"/>
</g>
</svg>
