<svg width="56" height="41" viewBox="0 0 56 41" fill="none" xmlns="http://www.w3.org/2000/svg">
<path fill-rule="evenodd" clip-rule="evenodd" d="M50.9301 37.8112L50.5201 39.4301L10.0527 29.1862L10.4621 27.5673C13.7001 28.3866 16.2116 25.2679 16.6178 23.6655L18.953 14.4387C20.8023 7.72401 26.9168 3.07774 33.8822 3.09485C34.4786 0.867654 36.7684 -0.45359 38.995 0.143428C41.2222 0.740447 42.544 3.02964 41.9465 5.25684C48.0551 8.66631 51.1861 15.6942 49.6345 22.5153L47.3731 31.4508C46.8931 33.3445 49.3116 37.4012 50.9301 37.8112Z" fill="#F4F4F4"/>
<path fill-rule="evenodd" clip-rule="evenodd" d="M23.0127 34.1904C23.4013 38.322 27.0652 41.3568 31.1967 40.9688C33.4469 40.7576 35.4827 39.5444 36.7398 37.6651L23.0127 34.1904Z" fill="black"/>
<path fill-rule="evenodd" clip-rule="evenodd" d="M50.9338 37.8209C50.9338 37.8209 48.5404 36.8909 47.2822 35.5638C45.5302 33.7161 45.6456 31.7 46.83 27.809C48.2234 23.1756 48.1855 18.2946 47.6489 16.0573C45.7798 8.26131 41.9502 5.2666 41.9502 5.2666C48.0588 8.67607 51.1898 15.704 49.6382 22.5251L47.3768 31.4606C46.9802 32.7808 49.3154 37.411 50.9338 37.8209L50.5239 39.4399L50.9338 37.8209Z" fill="#E3E3E3"/>
<path d="M5.44022 19.0529C5.33782 18.968 5.19173 18.9872 5.10231 19.0789C5.00857 19.1746 4.98584 19.3365 5.07313 19.451C5.37065 19.8411 5.50923 20.3053 5.49279 20.8566C5.48856 20.9913 5.58794 21.1384 5.75619 21.1291L5.75713 21.1294C5.91011 21.1203 6.00752 20.9827 6.0111 20.8526C6.03108 20.1796 5.85952 19.5923 5.48095 19.0957L5.44022 19.0529Z" fill="black" stroke="black" stroke-width="0.3"/>
<path d="M12.8534 20.0985C11.9917 19.7925 11.0386 20.047 10.4954 20.7308C10.443 20.6882 10.3881 20.6483 10.3326 20.6097C9.36264 19.9357 7.92461 20.1046 6.81609 20.9827C6.43816 21.2824 6.2196 21.8627 6.09652 22.4737C6.00537 22.9261 5.96233 23.417 5.93965 23.8596C5.88315 23.7437 5.82606 23.6279 5.76534 23.5133C5.14635 22.3463 4.52879 21.0793 3.44453 20.1405L3.40259 20.1106C3.30123 20.0527 3.16739 20.0638 3.07879 20.148C2.96823 20.2528 2.97656 20.423 3.08803 20.5196C4.09978 21.3959 4.67376 22.5825 5.29001 23.7446C5.48052 24.1038 5.64849 24.458 5.77406 24.8319L5.77504 24.8319C5.81254 24.9427 5.84806 25.0469 5.87795 25.1522L5.87666 25.1609L5.87472 25.1882L5.87367 25.1901L5.87562 25.1902C5.87322 25.2295 5.87149 25.2826 5.88334 25.3302L5.8833 25.3312C5.90043 25.3975 5.93647 25.4493 5.98234 25.4862L6.03103 25.5182C6.08082 25.5438 6.14244 25.5581 6.21364 25.5492L6.21559 25.5492C6.26466 25.5425 6.36327 25.5176 6.41899 25.4079L6.41805 25.4069C6.42815 25.3869 6.4336 25.3672 6.43537 25.3597C6.4383 25.3471 6.44065 25.3329 6.44272 25.3179C6.44691 25.2876 6.45041 25.249 6.45073 25.2029C6.45219 24.8679 6.41803 23.7641 6.58089 22.7841C6.63311 22.4697 6.70292 22.1738 6.79908 21.9261C6.89597 21.6766 7.01431 21.4891 7.15578 21.3769C8.10108 20.6281 9.26949 20.5012 10.0208 21.0227C10.1022 21.0792 10.1786 21.1417 10.2497 21.2077C10.2373 21.2744 10.227 21.3486 10.2254 21.4238C10.2237 21.5074 10.2291 21.5992 10.2493 21.6855L10.2746 21.7695C10.3176 21.8842 10.3945 21.9849 10.5073 22.0406C10.6248 22.0988 10.7682 22.1046 10.9276 22.038C11.0022 22.0068 11.0626 21.9562 11.101 21.8879C11.1387 21.8208 11.15 21.7466 11.1457 21.6764L11.1305 21.5821C11.1076 21.4895 11.0653 21.4053 11.0415 21.3639L10.9276 21.1869C10.909 21.161 10.8885 21.1366 10.8688 21.1115C11.2812 20.5254 12.0944 20.3091 12.8069 20.6343C12.9288 20.6898 13.0863 20.6505 13.1568 20.5237L13.1578 20.5227C13.2323 20.3861 13.1635 20.2309 13.0354 20.1725L12.8534 20.0985Z" fill="black" stroke="black" stroke-width="0.3"/>
<path fill-rule="evenodd" clip-rule="evenodd" d="M49.8446 5.35015C50.1011 4.60838 50.0843 3.89406 50.1151 3.14167C50.121 2.99474 49.9587 2.87258 49.7527 2.86815C49.5466 2.86372 49.3745 2.97968 49.3684 3.12662C49.3393 3.84006 49.3628 4.51897 49.1194 5.22356C49.0701 5.36607 49.1927 5.51035 49.3928 5.54488C49.5929 5.58028 49.7954 5.49266 49.8446 5.35015Z" fill="black"/>
<path fill-rule="evenodd" clip-rule="evenodd" d="M51.2708 6.82126C52.619 5.64535 53.8893 4.13267 54.7772 2.60527C54.8546 2.47185 54.8042 2.30346 54.6645 2.22985C54.5249 2.15624 54.3486 2.20409 54.2712 2.33751C53.4127 3.8143 52.1841 5.2773 50.8804 6.41366C50.7626 6.51671 50.7544 6.69153 50.8621 6.80379C50.9698 6.91604 51.1529 6.92432 51.2708 6.82126Z" fill="black"/>
<path fill-rule="evenodd" clip-rule="evenodd" d="M51.6987 8.1726C52.9276 8.3914 54.1942 8.01809 55.3116 7.49026C55.4574 7.42078 55.5239 7.23724 55.4602 7.08066C55.3964 6.92303 55.2262 6.85148 55.0804 6.91992C54.0627 7.40108 52.9118 7.75781 51.7926 7.55871C51.6355 7.53071 51.4871 7.64581 51.4612 7.81484C51.4353 7.98387 51.5417 8.1446 51.6987 8.1726Z" fill="black"/>
</svg>
